<svg width="25" height="24" viewBox="0 0 25 24" fill="none" xmlns="http://www.w3.org/2000/svg">
<path d="M1.00002 4C1.00002 2.34315 2.34316 1 4.00002 1H22C23.6569 1 25 2.34315 25 4V15C25 16.6569 23.6569 18 22 18H2.00002C1.44773 18 1.00002 17.5523 1.00002 17V4Z" fill="#B28D1C"/>
<path d="M2.26498 2L14.5536 5.06717C17.2328 5.73589 18.8627 8.44995 18.1939 11.1292L17.3374 14.5611L5.04873 11.494C2.36951 10.8252 0.739666 8.11118 1.40839 5.43195L2.26498 2Z" fill="#FFCA28"/>
<rect x="1.00002" y="9" width="18" height="8" fill="#FFCA28"/>
<path d="M17.7844 22.6913C17.6507 23.2272 17.1079 23.5532 16.572 23.4194L4.85117 20.4939C2.17194 19.8252 0.542107 17.1112 1.21083 14.4319L2.06743 11L14.7585 14.1676C17.4377 14.8363 19.0676 17.5504 18.3988 20.2296L17.7844 22.6913Z" fill="#FFCA28"/>
<g clip-path="url(#clip0_105_3)">
<path d="M2.30002 1.75799L15.59 5.07699C16.4042 5.31573 17.1229 5.80389 17.645 6.4727C18.167 7.1415 18.4661 7.95724 18.5 8.80499V20.805C18.5218 21.1699 18.4553 21.5347 18.306 21.8684C18.1567 22.2021 17.929 22.4949 17.6424 22.7218C17.3558 22.9488 17.0187 23.1032 16.6596 23.172C16.3006 23.2408 15.9302 23.2219 15.58 23.117L4.42002 20.493C3.6048 20.2679 2.8824 19.7892 2.35742 19.1261C1.83245 18.463 1.53215 17.6501 1.50002 16.805V3.80499C1.50239 3.01007 1.81922 2.24839 2.38132 1.68629C2.94341 1.1242 3.7051 0.807367 4.50002 0.804993H21.5C22.2949 0.807367 23.0566 1.1242 23.6187 1.68629C24.1808 2.24839 24.4976 3.01007 24.5 3.80499V14.805C24.4979 15.6 24.1812 16.3618 23.619 16.924C23.0569 17.4861 22.295 17.8029 21.5 17.805H18.5" stroke="black" stroke-linecap="round" stroke-linejoin="round"/>
<path d="M10.5 3.80499H20.5" stroke="black" stroke-linecap="round" stroke-linejoin="round"/>
<path d="M14 15.805C15.1046 15.805 16 14.9096 16 13.805C16 12.7004 15.1046 11.805 14 11.805C12.8954 11.805 12 12.7004 12 13.805C12 14.9096 12.8954 15.805 14 15.805Z" stroke="black" stroke-linecap="round" stroke-linejoin="round"/>
<path d="M18.5 8.80499H20.5" stroke="black" stroke-linecap="round" stroke-linejoin="round"/>
</g>
<defs>
<clipPath id="clip0_105_3">
<rect width="24" height="24" fill="white" transform="translate(1.00002)"/>
</clipPath>
</defs>
</svg>
