<svg width="97" height="24" viewBox="0 0 97 24" fill="none" xmlns="http://www.w3.org/2000/svg">
<path d="M1.00002 4C1.00002 2.34315 2.34316 1 4.00002 1H22C23.6569 1 25 2.34315 25 4V15C25 16.6569 23.6569 18 22 18H2.00002C1.44773 18 1.00002 17.5523 1.00002 17V4Z" fill="#B28D1C"/>
<path d="M2.26498 2L14.5536 5.06717C17.2328 5.73589 18.8627 8.44995 18.1939 11.1292L17.3374 14.5611L5.04873 11.494C2.36951 10.8252 0.739666 8.11118 1.40839 5.43195L2.26498 2Z" fill="#FFCA28"/>
<rect x="1.00002" y="9" width="18" height="8" fill="#FFCA28"/>
<path d="M17.7844 22.6913C17.6507 23.2272 17.1079 23.5532 16.572 23.4194L4.85117 20.4939C2.17194 19.8252 0.542107 17.1112 1.21083 14.4319L2.06743 11L14.7585 14.1676C17.4377 14.8363 19.0676 17.5504 18.3988 20.2296L17.7844 22.6913Z" fill="#FFCA28"/>
<g clip-path="url(#clip0_101_27)">
<path d="M2.30002 1.75799L15.59 5.07699C16.4042 5.31573 17.1229 5.80389 17.645 6.4727C18.167 7.1415 18.4661 7.95724 18.5 8.80499V20.805C18.5218 21.1699 18.4553 21.5347 18.306 21.8684C18.1567 22.2021 17.929 22.4949 17.6424 22.7218C17.3558 22.9488 17.0187 23.1032 16.6596 23.172C16.3006 23.2408 15.9302 23.2219 15.58 23.117L4.42002 20.493C3.6048 20.2679 2.8824 19.7892 2.35742 19.1261C1.83245 18.463 1.53215 17.6501 1.50002 16.805V3.80499C1.50239 3.01007 1.81922 2.24839 2.38132 1.68629C2.94341 1.1242 3.7051 0.807367 4.50002 0.804993H21.5C22.2949 0.807367 23.0566 1.1242 23.6187 1.68629C24.1808 2.24839 24.4976 3.01007 24.5 3.80499V14.805C24.4979 15.6 24.1812 16.3618 23.619 16.924C23.0569 17.4861 22.295 17.8029 21.5 17.805H18.5" stroke="black" stroke-linecap="round" stroke-linejoin="round"/>
<path d="M10.5 3.80499H20.5" stroke="black" stroke-linecap="round" stroke-linejoin="round"/>
<path d="M14 15.805C15.1046 15.805 16 14.9096 16 13.805C16 12.7004 15.1046 11.805 14 11.805C12.8954 11.805 12 12.7004 12 13.805C12 14.9096 12.8954 15.805 14 15.805Z" stroke="black" stroke-linecap="round" stroke-linejoin="round"/>
<path d="M18.5 8.80499H20.5" stroke="black" stroke-linecap="round" stroke-linejoin="round"/>
</g>
<path d="M38.4375 18V6.57812H40.8594V16H45.4922V18H38.4375ZM49.6797 9.26562V18H47.2969V9.26562H49.6797ZM48.4922 5.84375C48.8464 5.84375 49.1511 5.92708 49.4063 6.09375C49.6615 6.25521 49.7891 6.5599 49.7891 7.00781C49.7891 7.45052 49.6615 7.75781 49.4063 7.92969C49.1511 8.09635 48.8464 8.17969 48.4922 8.17969C48.1328 8.17969 47.8255 8.09635 47.5703 7.92969C47.3203 7.75781 47.1953 7.45052 47.1953 7.00781C47.1953 6.5599 47.3203 6.25521 47.5703 6.09375C47.8255 5.92708 48.1328 5.84375 48.4922 5.84375ZM57.1485 9.10156C58.0807 9.10156 58.8307 9.35677 59.3985 9.86719C59.9662 10.3724 60.25 11.1849 60.25 12.3047V18H57.8672V12.8984C57.8672 12.2734 57.7526 11.8021 57.5235 11.4844C57.2995 11.1667 56.9453 11.0078 56.461 11.0078C55.7318 11.0078 55.2344 11.2552 54.9688 11.75C54.7031 12.2448 54.5703 12.9583 54.5703 13.8906V18H52.1875V9.26562H54.0078L54.3281 10.3828H54.461C54.6485 10.0807 54.8802 9.83594 55.1563 9.64844C55.4375 9.46094 55.7474 9.32292 56.086 9.23438C56.4297 9.14583 56.7839 9.10156 57.1485 9.10156ZM65.086 5.84375V11.2812C65.086 11.6094 65.0729 11.9375 65.0469 12.2656C65.0208 12.5938 64.9922 12.9219 64.961 13.25H64.9922C65.1537 13.0208 65.3177 12.7943 65.4844 12.5703C65.6563 12.3464 65.8386 12.1302 66.0313 11.9219L68.4766 9.26562H71.1641L67.6953 13.0547L71.375 18H68.625L66.1094 14.4609L65.086 15.2812V18H62.7031V5.84375H65.086ZM75.0078 9.26562V18H72.625V9.26562H75.0078ZM73.8203 5.84375C74.1745 5.84375 74.4792 5.92708 74.7344 6.09375C74.9896 6.25521 75.1172 6.5599 75.1172 7.00781C75.1172 7.45052 74.9896 7.75781 74.7344 7.92969C74.4792 8.09635 74.1745 8.17969 73.8203 8.17969C73.461 8.17969 73.1537 8.09635 72.8985 7.92969C72.6485 7.75781 72.5235 7.45052 72.5235 7.00781C72.5235 6.5599 72.6485 6.25521 72.8985 6.09375C73.1537 5.92708 73.461 5.84375 73.8203 5.84375ZM82.4766 9.10156C83.4089 9.10156 84.1589 9.35677 84.7266 9.86719C85.2943 10.3724 85.5781 11.1849 85.5781 12.3047V18H83.1953V12.8984C83.1953 12.2734 83.0807 11.8021 82.8516 11.4844C82.6276 11.1667 82.2735 11.0078 81.7891 11.0078C81.0599 11.0078 80.5625 11.2552 80.2969 11.75C80.0313 12.2448 79.8985 12.9583 79.8985 13.8906V18H77.5156V9.26562H79.336L79.6563 10.3828H79.7891C79.9766 10.0807 80.2083 9.83594 80.4844 9.64844C80.7656 9.46094 81.0755 9.32292 81.4141 9.23438C81.7578 9.14583 82.112 9.10156 82.4766 9.10156Z" fill="#FFCA28"/>
<defs>
<clipPath id="clip0_101_27">
<rect width="24" height="24" fill="white" transform="translate(1.00002)"/>
</clipPath>
</defs>
</svg>
